<svg width="72" height="101" viewBox="0 0 72 101" fill="none" xmlns="http://www.w3.org/2000/svg">
<path fill-rule="evenodd" clip-rule="evenodd" d="M69.9428 21.9807C68.8989 13.6259 65.0834 5.94081 61.8877 1.43405L63.1113 0.566406C66.4156 5.22631 70.35 13.1412 71.4312 21.7947C72.5041 30.3819 70.7668 39.7452 62.7695 47.3069C63.1823 54.8965 60.6644 65.8385 51.8004 74.5477C43.0838 83.1122 28.3288 89.4231 4.46735 88.3836L19.4442 99.396L18.5557 100.604L0.913574 87.6323L13.9238 72.0201L15.0761 72.9804L3.5288 86.8372C27.6956 88.088 42.2897 81.7895 50.7491 73.4778C58.7961 65.5712 61.384 55.755 61.3106 48.6015C56.5494 52.5524 51.6542 53.9913 47.2256 53.757C42.4414 53.5039 38.2645 51.3012 35.4546 48.3279C32.6581 45.3688 31.1368 41.5511 31.8753 38.0561C32.6265 34.5006 35.6493 31.5607 41.3333 30.2689L41.3665 30.2613L41.4004 30.2568C49.1456 29.2241 54.2272 31.8143 57.4983 35.5026C60.2911 38.6515 61.7238 42.5523 62.4452 45.5272C69.41 38.4977 70.9393 29.957 69.9428 21.9807ZM61.1802 46.7323C60.5657 43.8065 59.2161 39.7 56.3761 36.4979C53.4436 33.1913 48.8681 30.7838 41.6325 31.7392C36.3398 32.9507 33.9341 35.5682 33.3429 38.3662C32.7376 41.2306 33.9663 44.5692 36.5448 47.2976C39.1098 50.0118 42.9328 52.0278 47.3048 52.2591C51.5674 52.4846 56.4125 51.0164 61.1802 46.7323Z" fill="#015064"/>
</svg>
