<svg width="230" height="68" fill="none" xmlns="http://www.w3.org/2000/svg"><path d="M22.511 17.76c-.24.08-.467.12-.68.12-.267 0-.547-.04-.84-.12a6.8 6.8 0 00-.88-.28 8.224 8.224 0 00-.96-.28 3.79 3.79 0 00-1.12-.16c-.373 0-.76.053-1.16.16-.4.08-.827.227-1.28.44v-3.72a5.206 5.206 0 012.12-.44c.507 0 1.027.053 1.56.16a34.58 34.58 0 011.6.36 34.04 34.04 0 001.6.36 9.17 9.17 0 002.92.08c.427-.08.867-.213 1.32-.4 0 1.974-.36 3.733-1.08 5.28a11.517 11.517 0 01-2.84 3.88 12.498 12.498 0 01-4.08 2.4c-1.547.534-3.16.8-4.84.8-1.28 0-2.507-.16-3.68-.48a13.925 13.925 0 01-3.28-1.44 14.113 14.113 0 01-2.76-2.28c-.8-.88-1.48-1.88-2.04-3-.453-.933-.8-1.893-1.04-2.88-.213-.986-.32-1.96-.32-2.92 0-1.2.16-2.386.48-3.56a13.922 13.922 0 011.44-3.28 12.068 12.068 0 012.28-2.8 13.312 13.312 0 013.08-2.16C9.951.667 11.938.2 13.991.2c1.253 0 2.453.174 3.6.52 1.173.32 2.267.8 3.28 1.44a12.21 12.21 0 012.72 2.24c.827.88 1.52 1.88 2.08 3 .293.56.533 1.107.72 1.64h-2.2c-.507-.026-.88-.04-1.12-.04h-.44l-.08-.04c-.8-1.653-1.973-2.946-3.52-3.88-1.52-.933-3.2-1.4-5.04-1.4-1.573 0-3.04.347-4.4 1.04a9.227 9.227 0 00-2.28 1.6 9.566 9.566 0 00-1.64 2.08 9.62 9.62 0 00-1.04 2.4 9.52 9.52 0 00.64 6.84c.8 1.654 1.96 2.947 3.48 3.88 1.547.933 3.253 1.4 5.12 1.4.88 0 1.747-.107 2.6-.32a9.413 9.413 0 002.4-.96 8.661 8.661 0 002.08-1.6 8.44 8.44 0 001.56-2.28zm19.679 8.68c-1.813 0-3.52-.333-5.12-1a13.416 13.416 0 01-4.12-2.8 13.928 13.928 0 01-2.8-4.16c-.693-1.573-1.04-3.267-1.04-5.08 0-1.787.347-3.466 1.04-5.04a13.415 13.415 0 012.8-4.12 12.544 12.544 0 014.12-2.8C38.67.747 40.377.4 42.19.4c1.814 0 3.52.347 5.12 1.04 1.6.667 2.987 1.6 4.16 2.8a13.08 13.08 0 012.84 4.12c.694 1.574 1.04 3.254 1.04 5.04 0 1.813-.346 3.507-1.04 5.08a13.567 13.567 0 01-2.84 4.16c-1.173 1.174-2.56 2.107-4.16 2.8-1.6.667-3.306 1-5.12 1zm0-22.56a9.382 9.382 0 00-3.76.76 10.317 10.317 0 00-3.04 2.04 9.669 9.669 0 00-2.04 3.04 9.004 9.004 0 00-.76 3.68c0 1.333.254 2.587.76 3.76a9.797 9.797 0 002.04 3 10.3 10.3 0 003.04 2.04 9.381 9.381 0 003.76.76c1.36 0 2.627-.253 3.8-.76a9.67 9.67 0 003.04-2.04 8.941 8.941 0 002.04-3 9.383 9.383 0 00.76-3.76 9.004 9.004 0 00-.76-3.68 8.846 8.846 0 00-2.04-3.04 9.669 9.669 0 00-3.04-2.04c-1.173-.506-2.44-.76-3.8-.76zm15.953 8.36a4.79 4.79 0 01.84-2.44c.534-.773 1.2-1.32 2-1.64a.65.65 0 01.28-.08V.88c.56-.08 1.2-.133 1.92-.16a29.53 29.53 0 012.08-.08c1.44 0 2.88.134 4.32.4 1.467.267 2.773.707 3.92 1.32 1.174.614 2.12 1.44 2.84 2.48.747 1.04 1.12 2.334 1.12 3.88 0 1.947-.466 3.56-1.4 4.84-.907 1.28-2.28 2.293-4.12 3.04.507.907 1.04 1.827 1.6 2.76a20.138 20.138 0 001.88 2.48 10.47 10.47 0 002.16 1.8 4.97 4.97 0 002.56.68v3.4c-1.44 0-2.773-.32-4-.96a13.812 13.812 0 01-3.28-2.44 21.444 21.444 0 01-2.68-3.28 44.921 44.921 0 01-2.04-3.48 6.825 6.825 0 01-.92.16c-.4.027-1.133.067-2.2.12a.657.657 0 00-.2.04h-.16v8.08h-3.4v-8.84a3.025 3.025 0 01-.72-.44l-.56-.56a5.585 5.585 0 01-1.4-1.8 5.3 5.3 0 01-.44-2.08zm9.52-1.92c.374.373.734.84 1.08 1.4.374.56.76 1.173 1.16 1.84 1.573-.56 2.653-1.253 3.24-2.08.587-.827.88-1.653.88-2.48 0-1.146-.333-2.04-1-2.68-.64-.666-1.44-1.16-2.4-1.48a10.882 10.882 0 00-3-.56 38.872 38.872 0 00-2.88-.12c-.026.054-.04.227-.04.52 0 .267-.013.68-.04 1.24v2.32a7.95 7.95 0 011.44.8c.507.32 1.027.747 1.56 1.28zm-.92 4.12a9.69 9.69 0 00-.72-1.12 7.92 7.92 0 00-1-1.12 4.77 4.77 0 00-1.16-.92 2.38 2.38 0 00-1.24-.36c-.373 0-.706.16-1 .48-.293.293-.44.587-.44.88 0 .427.147.787.44 1.08.294.267.64.494 1.04.68.427.16.854.28 1.28.36.427.053.773.08 1.04.08l1.76-.04zm32.854-2.32c1.334.534 2.32 1.347 2.96 2.44.64 1.067.96 2.24.96 3.52 0 1.6-.306 2.907-.92 3.92a6.468 6.468 0 01-2.4 2.4c-.986.587-2.12 1-3.4 1.24-1.28.213-2.613.32-4 .32h-8.28V4.84h-.88a3.14 3.14 0 01-.68-.08c-.24-.08-.506-.16-.8-.24V1.2c.267.054.56.107.88.16.347.054.68.08 1 .08.587 0 1.16-.04 1.72-.12.587-.08 1.174-.12 1.76-.12.827-.106 1.654-.2 2.48-.28.827-.08 1.694-.12 2.6-.12 1.04 0 2.067.094 3.08.28 1.014.187 1.92.52 2.72 1a5.528 5.528 0 012 2c.507.854.76 1.947.76 3.28 0 .907-.146 1.654-.44 2.24a7.487 7.487 0 01-.96 1.44l-1.08.72.92.36zm.48 6.36c0-.88-.24-1.613-.72-2.2a4.664 4.664 0 00-1.76-1.44 7.87 7.87 0 00-2.32-.72c-.826-.16-1.626-.24-2.4-.24h-1.88v-3.4h1.88c1.014-.08 1.867-.24 2.56-.48.72-.24 1.32-.626 1.8-1.16.134-.133.254-.32.36-.56.134-.24.2-.573.2-1 0-.08-.013-.16-.04-.24a1.043 1.043 0 01-.04-.32 2.15 2.15 0 00-.6-1.2 2.87 2.87 0 00-1.12-.8 5.699 5.699 0 00-1.48-.4c-.533-.08-1.093-.12-1.68-.12-.986 0-1.893.067-2.72.2-.8.107-1.533.174-2.2.2v18c.24 0 .52.013.84.04.347 0 .707.014 1.08.04l1.12.08h1.04c1.067 0 2.067-.053 3-.16.934-.133 1.76-.347 2.48-.64.72-.32 1.307-.76 1.76-1.32.454-.56.734-1.28.84-2.16zM119.324.84c1.547 3.894 3 7.52 4.36 10.88.56 1.44 1.133 2.893 1.72 4.36.587 1.44 1.133 2.8 1.64 4.08.533 1.28 1 2.427 1.4 3.44.427 1.013.747 1.8.96 2.36h-3.72c-.56-1.44-1.133-2.867-1.72-4.28-.56-1.44-1.133-2.92-1.72-4.44a9.736 9.736 0 00-2.76-.4c-.693 0-1.387.053-2.08.16-.667.107-1.347.213-2.04.32l-3.08.48-3.32 8.16h-3.76l3.32-8.32c-.453-.08-.947-.2-1.48-.36a9.235 9.235 0 01-1.52-.64v-4c.8.507 1.547.893 2.24 1.16.72.267 1.413.44 2.08.52l5.44-13.48h4.04zm-4.64 13.08h.08c.027-.027.067-.04.12-.04a45.512 45.512 0 012.16-.36c.747-.133 1.507-.2 2.28-.2.213 0 .44.014.68.04.24 0 .467.014.68.04l-.24-.76-3.08-7.64-3.68 9.08c.16-.053.32-.08.48-.08.187 0 .36-.027.52-.08zm39.788 3.84a12.644 12.644 0 01-2.44 4.16c-1.093 1.253-2.426 2.28-4 3.08a12.978 12.978 0 01-5.88 1.4c-1.28 0-2.506-.16-3.68-.48a13.943 13.943 0 01-3.28-1.44 14.133 14.133 0 01-2.76-2.28c-.8-.88-1.48-1.88-2.04-3-.453-.933-.8-1.893-1.04-2.88a13.81 13.81 0 01-.32-2.92c0-1.2.16-2.386.48-3.56a13.95 13.95 0 011.44-3.28 12.102 12.102 0 012.28-2.8 13.333 13.333 0 013.08-2.16c1.92-.933 3.907-1.4 5.96-1.4 1.254 0 2.454.174 3.6.52 1.174.32 2.267.8 3.28 1.44a12.17 12.17 0 012.72 2.24c.827.88 1.52 1.88 2.08 3 .294.56.534 1.107.72 1.64h-2.2c-.506-.026-.88-.04-1.12-.04h-.44l-.08-.04c-.8-1.653-1.973-2.946-3.52-3.88-1.52-.933-3.2-1.4-5.04-1.4a9.55 9.55 0 00-4.4 1.04 9.24 9.24 0 00-2.28 1.6 9.586 9.586 0 00-1.64 2.08 9.632 9.632 0 00-1.04 2.4 9.53 9.53 0 00.64 6.84c.8 1.654 1.96 2.947 3.48 3.88 1.547.933 3.254 1.4 5.12 1.4 1.44 0 2.88-.347 4.32-1.04a9.095 9.095 0 002.48-1.76 9.89 9.89 0 001.76-2.36h3.76zM179.839.84V26h-3.48V14.8h-14.6V26h-3.48V.84h3.48v10.44h14.6V.84h3.48zM202.166 26h-17.52V.88h16.84v3.56h-13.32v7c.72.267 1.414.4 2.08.4.88 0 1.707-.133 2.48-.4.774-.266 1.56-.4 2.36-.4.667 0 1.294.147 1.88.44v3.68c-.693-.24-1.346-.36-1.96-.36-.826 0-1.626.107-2.4.32a9.29 9.29 0 01-2.48.32 7.25 7.25 0 01-1.96-.28v7.32h14V26zm17.065 0h-3.6L205.751.84h3.64l9.84 25.16zm6.36-25.16h3.64L219.311 26h-3.6l9.88-25.16zM71.673 40.88a8.336 8.336 0 01-.44 2.48 6.05 6.05 0 01-1.08 2c-.48.56-1.093 1.014-1.84 1.36-.72.32-1.56.48-2.52.48-1.466 0-3-.293-4.6-.88V66h-3.4V44.92a12.894 12.894 0 00-1.88-.52 9.982 9.982 0 00-1.96-.2c-.693 0-1.333.12-1.92.36-.56.24-.853.773-.88 1.6h-3.4c0-.88.16-1.653.48-2.32.347-.667.8-1.213 1.36-1.64a5.459 5.459 0 011.96-1c.774-.24 1.6-.36 2.48-.36 1.334 0 2.52.16 3.56.48a23.46 23.46 0 012.92 1c.907.373 1.774.72 2.6 1.04.854.294 1.734.44 2.64.44.507 0 .92-.053 1.24-.16.32-.107.56-.267.72-.48.187-.24.307-.546.36-.92.08-.373.134-.827.16-1.36h3.44zm.162 11.36a4.79 4.79 0 01.84-2.44c.533-.773 1.2-1.32 2-1.64.106-.053.2-.08.28-.08v-7.2c.56-.08 1.2-.133 1.92-.16.746-.053 1.44-.08 2.08-.08 1.44 0 2.88.133 4.32.4 1.466.267 2.773.707 3.92 1.32 1.173.614 2.12 1.44 2.84 2.48.746 1.04 1.12 2.333 1.12 3.88 0 1.947-.467 3.56-1.4 4.84-.907 1.28-2.28 2.293-4.12 3.04.506.907 1.04 1.827 1.6 2.76a20.138 20.138 0 001.88 2.48 10.47 10.47 0 002.16 1.8 4.97 4.97 0 002.56.68v3.4c-1.44 0-2.774-.32-4-.96a13.812 13.812 0 01-3.28-2.44 21.444 21.444 0 01-2.68-3.28 44.921 44.921 0 01-2.04-3.48 6.825 6.825 0 01-.92.16c-.4.027-1.134.067-2.2.12a.657.657 0 00-.2.04h-.16v8.08h-3.4v-8.84a3.025 3.025 0 01-.72-.44l-.56-.56a5.585 5.585 0 01-1.4-1.8 5.3 5.3 0 01-.44-2.08zm9.52-1.92c.373.373.733.84 1.08 1.4.373.56.76 1.174 1.16 1.84 1.573-.56 2.653-1.253 3.24-2.08.586-.826.88-1.653.88-2.48 0-1.147-.334-2.04-1-2.68-.64-.666-1.44-1.16-2.4-1.48a10.881 10.881 0 00-3-.56 38.872 38.872 0 00-2.88-.12c-.027.054-.04.227-.04.52 0 .267-.014.68-.04 1.24v2.32c.453.187.933.453 1.44.8.506.32 1.026.747 1.56 1.28zm-.92 4.12a9.69 9.69 0 00-.72-1.12 7.92 7.92 0 00-1-1.12 4.77 4.77 0 00-1.16-.92 2.38 2.38 0 00-1.24-.36c-.374 0-.707.16-1 .48-.294.294-.44.587-.44.88 0 .427.146.787.44 1.08.293.267.64.493 1.04.68.426.16.853.28 1.28.36.426.053.773.08 1.04.08l1.76-.04zm29.534-13.6c1.546 3.893 3 7.52 4.36 10.88.56 1.44 1.133 2.894 1.72 4.36.586 1.44 1.133 2.8 1.64 4.08.533 1.28 1 2.427 1.4 3.44.426 1.014.746 1.8.96 2.36h-3.72c-.56-1.44-1.134-2.866-1.72-4.28-.56-1.44-1.134-2.92-1.72-4.44a9.736 9.736 0 00-2.76-.4c-.694 0-1.387.053-2.08.16-.667.107-1.347.214-2.04.32l-3.08.48-3.32 8.16h-3.76l3.32-8.32c-.454-.08-.947-.2-1.48-.36a9.239 9.239 0 01-1.52-.64v-4c.8.507 1.546.893 2.24 1.16a9.13 9.13 0 002.08.52l5.44-13.48h4.04zm-4.64 13.08h.08c.026-.026.066-.04.12-.04a45.512 45.512 0 012.16-.36c.746-.133 1.506-.2 2.28-.2.213 0 .44.014.68.04.24 0 .466.014.68.04l-.24-.76-3.08-7.64-3.68 9.08c.16-.053.32-.08.48-.08.186 0 .36-.026.52-.08zM130.383 66h-3.6l-9.88-25.16h3.64l9.84 25.16zm6.36-25.16h3.64L130.463 66h-3.6l9.88-25.16zM161.522 66h-17.52V40.88h16.84v3.56h-13.32v7c.72.267 1.413.4 2.08.4a7.55 7.55 0 002.48-.4 7.19 7.19 0 012.36-.4 4.15 4.15 0 011.88.44v3.68c-.694-.24-1.347-.36-1.96-.36-.827 0-1.627.107-2.4.32-.774.214-1.6.32-2.48.32-.64 0-1.294-.093-1.96-.28v7.32h14V66zm8.264-3.48h12.48V66h-15.96V40.84h3.48v21.68zM30.823 51.441C29.66 50.757 28.373 50 26.25 50s-3.41.757-4.573 1.441c-1.007.577-1.828 1.081-3.177 1.081-1.395 0-2.17-.45-3.178-1.08C14.16 50.774 12.89 50 10.75 50c-2.139 0-3.41.757-4.572 1.441-1.008.595-1.814 1.081-3.178 1.081V56c2.093 0 3.41-.775 4.572-1.441 1.008-.595 1.814-1.081 3.178-1.081 1.364 0 2.17.45 3.178 1.08C15.09 55.244 16.36 56 18.5 56c2.139 0 3.41-.775 4.573-1.441 1.007-.577 1.828-1.081 3.177-1.081 1.395 0 2.17.45 3.177 1.08C30.59 55.244 31.877 56 34 56v-3.514c-1.395 0-2.17-.45-3.177-1.045zm195 0c-1.163-.684-2.45-1.441-4.573-1.441-2.124 0-3.41.757-4.573 1.441-1.007.577-1.829 1.081-3.177 1.081-1.395 0-2.17-.45-3.178-1.08-1.162-.667-2.433-1.442-4.572-1.442-2.139 0-3.41.757-4.572 1.441-1.008.595-1.814 1.081-3.178 1.081V56c2.092 0 3.41-.775 4.572-1.441 1.008-.595 1.814-1.081 3.178-1.081 1.364 0 2.17.45 3.177 1.08 1.163.685 2.434 1.442 4.573 1.442 2.139 0 3.41-.775 4.572-1.441 1.008-.577 1.829-1.081 3.178-1.081 1.395 0 2.17.45 3.177 1.08C225.59 55.244 226.876 56 229 56v-3.514c-1.395 0-2.17-.45-3.177-1.045z" fill="#fff"/></svg>