<svg width="16" height="16" viewBox="0 0 16 16" fill="none" xmlns="http://www.w3.org/2000/svg">
<circle cx="8" cy="8" r="8" fill="#015064"/>
<path d="M11.7974 6.88698C11.4872 6.43143 10.0375 6.21674 8.94 6.18985C9.14876 6.1027 9.30659 6.03391 9.30659 6.03391L8.9167 5.5072L9.75827 5.83515C9.75827 5.83515 9.85205 5.57896 11.1311 5.5349C11.6295 5.51766 10.4343 4.20725 9.41912 4.48325C9.22387 4.53632 8.36599 5.085 7.81303 5.58238C7.72471 4.82822 7.27974 3.91075 6.78803 4.00698C6.14852 4.13241 5.34887 4.34644 5.58891 4.60801C5.71754 4.74844 6.20184 5.40723 6.69034 5.88981C5.90154 5.62217 4.93617 5.41295 4.59917 5.61653C4.08738 5.92572 3.96707 6.86299 4.0071 7.18647C4.04713 7.51046 4.75839 6.39843 4.75839 6.39843L4.86365 7.26111C4.86365 7.26111 6.06542 7.20586 6.38827 7.13732C6.49024 7.11562 6.62607 7.09687 6.76829 7.08122C6.10441 7.72731 5.3152 8.89619 5.25794 9.14471C5.17788 9.49141 5.49764 10.1407 5.844 10.6174C6.19042 11.094 6.72343 9.74187 6.82994 9.46622C6.93645 9.19088 6.5747 8.5146 6.5747 8.5146L7.28302 8.94035C7.28302 8.94035 7.78012 7.82174 7.87844 7.42881C7.87893 7.4269 7.87935 7.42506 7.87984 7.42315C8.00847 7.61903 8.09288 7.87067 8.14242 8.15771C8.18224 8.38884 8.20023 8.6418 8.2017 8.90496C8.20289 9.11944 8.19337 9.34051 8.17622 9.56171C8.149 9.91155 8.10281 10.2615 8.04948 10.5862C7.98915 10.954 7.92029 11.2891 7.86073 11.554C7.81797 11.7437 7.78018 11.8962 7.75359 12H8.5116C8.54141 11.9038 8.56877 11.8079 8.59467 11.7127C8.68901 11.3634 8.75738 11.0216 8.80316 10.6922C8.85572 10.315 8.87923 9.95407 8.88189 9.615C8.88399 9.35756 8.87398 9.11308 8.85502 8.88393C8.83122 8.5992 8.79385 8.33873 8.74878 8.10721C8.69447 7.82886 8.62931 7.59458 8.56389 7.4104C8.76012 7.47019 8.94677 7.54169 9.06736 7.6283C9.40153 7.86897 10.6447 8.76507 10.6447 8.76507L11.2109 7.76366C11.2109 7.76366 11.4508 9.46632 11.664 9.09065C11.8773 8.71496 12.2239 7.51288 11.7975 6.88689L11.7974 6.88698Z" fill="white"/>
</svg>
