<svg width="230" height="68" viewBox="0 0 230 68" fill="none" xmlns="http://www.w3.org/2000/svg">
<path d="M22.511 17.7602C22.271 17.8402 22.0443 17.8802 21.831 17.8802C21.5643 17.8802 21.2843 17.8402 20.991 17.7602C20.7243 17.6535 20.431 17.5602 20.111 17.4802C19.8176 17.3735 19.4976 17.2802 19.151 17.2002C18.8043 17.0935 18.431 17.0402 18.031 17.0402C17.6576 17.0402 17.271 17.0935 16.871 17.2002C16.471 17.2802 16.0443 17.4269 15.591 17.6402V13.9202C16.2576 13.6269 16.9643 13.4802 17.711 13.4802C18.2176 13.4802 18.7376 13.5335 19.271 13.6402C19.8043 13.7469 20.3376 13.8669 20.871 14.0002C21.4043 14.1335 21.9376 14.2535 22.471 14.3602C23.031 14.4669 23.6043 14.5202 24.191 14.5202C24.591 14.5202 24.991 14.4935 25.391 14.4402C25.8176 14.3602 26.2576 14.2269 26.711 14.0402C26.711 16.0135 26.351 17.7735 25.631 19.3202C24.9376 20.8402 23.991 22.1335 22.791 23.2002C21.6176 24.2402 20.2576 25.0402 18.711 25.6002C17.1643 26.1335 15.551 26.4002 13.871 26.4002C12.591 26.4002 11.3643 26.2402 10.191 25.9202C9.01764 25.5735 7.92431 25.0935 6.91098 24.4802C5.89764 23.8402 4.97764 23.0802 4.15098 22.2002C3.35098 21.3202 2.67098 20.3202 2.11098 19.2002C1.65764 18.2669 1.31098 17.3069 1.07098 16.3202C0.857643 15.3335 0.750977 14.3602 0.750977 13.4002C0.750977 12.2002 0.910977 11.0135 1.23098 9.8402C1.57764 8.66686 2.05764 7.57353 2.67098 6.5602C3.28431 5.5202 4.04431 4.58686 4.95098 3.76019C5.85764 2.90686 6.88431 2.18686 8.03098 1.6002C9.95098 0.666862 11.9376 0.200195 13.991 0.200195C15.2443 0.200195 16.4443 0.373529 17.591 0.720196C18.7643 1.0402 19.8576 1.5202 20.871 2.1602C21.8843 2.77353 22.791 3.5202 23.591 4.4002C24.4176 5.2802 25.111 6.2802 25.671 7.4002C25.9643 7.9602 26.2043 8.50686 26.391 9.0402C25.431 9.0402 24.6976 9.0402 24.191 9.0402C23.6843 9.01353 23.311 9.0002 23.071 9.0002C22.831 9.0002 22.6843 9.0002 22.631 9.0002C22.5776 8.97353 22.551 8.9602 22.551 8.9602C21.751 7.30686 20.5776 6.01353 19.031 5.0802C17.511 4.14686 15.831 3.6802 13.991 3.6802C12.4176 3.6802 10.951 4.02686 9.59098 4.7202C8.73764 5.14686 7.97764 5.6802 7.31098 6.3202C6.67098 6.93353 6.12431 7.62686 5.67098 8.4002C5.21764 9.14686 4.87098 9.94686 4.63098 10.8002C4.39098 11.6535 4.27098 12.5202 4.27098 13.4002C4.27098 14.8669 4.60431 16.2802 5.27098 17.6402C6.07098 19.2935 7.23098 20.5869 8.75098 21.5202C10.2976 22.4535 12.0043 22.9202 13.871 22.9202C14.751 22.9202 15.6176 22.8135 16.471 22.6002C17.3243 22.3869 18.1243 22.0669 18.871 21.6402C19.6443 21.2135 20.3376 20.6802 20.951 20.0402C21.591 19.3735 22.111 18.6135 22.511 17.7602Z" fill="white"/>
<path d="M42.1904 26.4402C40.377 26.4402 38.6703 26.1069 37.0704 25.4402C35.497 24.7469 34.1237 23.8135 32.9504 22.6402C31.777 21.4402 30.8437 20.0535 30.1504 18.4802C29.457 16.9069 29.1104 15.2135 29.1104 13.4002C29.1104 11.6135 29.457 9.93353 30.1504 8.3602C30.8437 6.78686 31.777 5.41353 32.9504 4.2402C34.1237 3.0402 35.497 2.10686 37.0704 1.4402C38.6703 0.746862 40.377 0.400195 42.1904 0.400195C44.0037 0.400195 45.7104 0.746862 47.3104 1.4402C48.9104 2.10686 50.297 3.0402 51.4704 4.2402C52.6703 5.41353 53.617 6.78686 54.3104 8.3602C55.0037 9.93353 55.3504 11.6135 55.3504 13.4002C55.3504 15.2135 55.0037 16.9069 54.3104 18.4802C53.617 20.0535 52.6703 21.4402 51.4704 22.6402C50.297 23.8135 48.9104 24.7469 47.3104 25.4402C45.7104 26.1069 44.0037 26.4402 42.1904 26.4402ZM42.1904 3.8802C40.857 3.8802 39.6037 4.13353 38.4304 4.6402C37.2837 5.14686 36.2704 5.82686 35.3904 6.6802C34.537 7.53353 33.857 8.54686 33.3503 9.7202C32.8437 10.8669 32.5904 12.0935 32.5904 13.4002C32.5904 14.7335 32.8437 15.9869 33.3503 17.1602C33.857 18.3069 34.537 19.3069 35.3904 20.1602C36.2704 21.0135 37.2837 21.6935 38.4304 22.2002C39.6037 22.7069 40.857 22.9602 42.1904 22.9602C43.5504 22.9602 44.817 22.7069 45.9904 22.2002C47.1637 21.6935 48.177 21.0135 49.0303 20.1602C49.9104 19.3069 50.5904 18.3069 51.0704 17.1602C51.577 15.9869 51.8304 14.7335 51.8304 13.4002C51.8304 12.0935 51.577 10.8669 51.0704 9.7202C50.5904 8.54686 49.9104 7.53353 49.0303 6.6802C48.177 5.82686 47.1637 5.14686 45.9904 4.6402C44.817 4.13353 43.5504 3.8802 42.1904 3.8802Z" fill="white"/>
<path d="M58.1432 12.2402C58.1965 11.3602 58.4765 10.5469 58.9832 9.8002C59.5165 9.02686 60.1832 8.4802 60.9832 8.1602C61.0898 8.10686 61.1832 8.0802 61.2632 8.0802V0.880196C61.8232 0.800196 62.4632 0.746862 63.1832 0.720196C63.9298 0.666863 64.6232 0.640197 65.2632 0.640197C66.7032 0.640197 68.1432 0.77353 69.5832 1.0402C71.0498 1.30686 72.3565 1.74686 73.5032 2.3602C74.6765 2.97353 75.6232 3.8002 76.3432 4.8402C77.0898 5.8802 77.4632 7.17353 77.4632 8.7202C77.4632 10.6669 76.9965 12.2802 76.0632 13.5602C75.1565 14.8402 73.7832 15.8535 71.9432 16.6002C72.4498 17.5069 72.9832 18.4269 73.5432 19.3602C74.1298 20.2669 74.7565 21.0935 75.4232 21.8402C76.0898 22.5602 76.8098 23.1602 77.5832 23.6402C78.3565 24.0935 79.2098 24.3202 80.1432 24.3202V27.7202C78.7032 27.7202 77.3698 27.4002 76.1432 26.7602C74.9432 26.1202 73.8498 25.3069 72.8632 24.3202C71.8765 23.3335 70.9832 22.2402 70.1832 21.0402C69.4098 19.8402 68.7298 18.6802 68.1432 17.5602C67.9565 17.6135 67.6498 17.6669 67.2232 17.7202C66.8232 17.7469 66.0898 17.7869 65.0232 17.8402C64.9698 17.8402 64.9032 17.8535 64.8232 17.8802C64.7698 17.8802 64.7165 17.8802 64.6632 17.8802V25.9602H61.2632V17.1202C60.9698 16.9869 60.7298 16.8402 60.5432 16.6802C60.3832 16.5202 60.1965 16.3335 59.9832 16.1202C59.3698 15.5869 58.9032 14.9869 58.5832 14.3202C58.2898 13.6269 58.1432 12.9335 58.1432 12.2402ZM67.6632 10.3202C68.0365 10.6935 68.3965 11.1602 68.7432 11.7202C69.1165 12.2802 69.5032 12.8935 69.9032 13.5602C71.4765 13.0002 72.5565 12.3069 73.1432 11.4802C73.7298 10.6535 74.0232 9.82686 74.0232 9.0002C74.0232 7.85353 73.6898 6.9602 73.0232 6.3202C72.3832 5.65353 71.5832 5.1602 70.6232 4.8402C69.6898 4.5202 68.6898 4.33353 67.6232 4.2802C66.5565 4.2002 65.5965 4.1602 64.7432 4.1602C64.7165 4.21353 64.7032 4.38686 64.7032 4.6802C64.7032 4.94686 64.6898 5.3602 64.6632 5.9202C64.6632 6.45353 64.6632 7.22686 64.6632 8.2402C65.1165 8.42686 65.5965 8.69353 66.1032 9.0402C66.6098 9.3602 67.1298 9.78686 67.6632 10.3202ZM66.7432 14.4402C66.5565 14.0935 66.3165 13.7202 66.0232 13.3202C65.7298 12.9202 65.3965 12.5469 65.0232 12.2002C64.6765 11.8269 64.2898 11.5202 63.8632 11.2802C63.4632 11.0402 63.0498 10.9202 62.6232 10.9202C62.2498 10.9202 61.9165 11.0802 61.6232 11.4002C61.3298 11.6935 61.1832 11.9869 61.1832 12.2802C61.1832 12.7069 61.3298 13.0669 61.6232 13.3602C61.9165 13.6269 62.2632 13.8535 62.6632 14.0402C63.0898 14.2002 63.5165 14.3202 63.9432 14.4002C64.3698 14.4535 64.7165 14.4802 64.9832 14.4802L66.7432 14.4402Z" fill="white"/>
<path d="M99.5972 12.1202C100.931 12.6535 101.917 13.4669 102.557 14.5602C103.197 15.6269 103.517 16.8002 103.517 18.0802C103.517 19.6802 103.211 20.9869 102.597 22.0002C102.011 23.0135 101.211 23.8135 100.197 24.4002C99.2106 24.9869 98.0772 25.4002 96.7972 25.6402C95.5172 25.8535 94.1839 25.9602 92.7972 25.9602H84.5172V4.8402H83.6372C83.4239 4.8402 83.1972 4.81353 82.9572 4.7602C82.7172 4.6802 82.4506 4.6002 82.1572 4.5202V1.2002C82.4239 1.25353 82.7172 1.30686 83.0372 1.36019C83.3839 1.41353 83.7172 1.4402 84.0372 1.4402C84.6239 1.4402 85.1972 1.4002 85.7572 1.3202C86.3439 1.2402 86.9306 1.2002 87.5172 1.2002C88.3439 1.09353 89.1706 1.0002 89.9972 0.920196C90.8239 0.840195 91.6906 0.800195 92.5972 0.800195C93.6372 0.800195 94.6639 0.893528 95.6772 1.0802C96.6906 1.26686 97.5972 1.60019 98.3972 2.08019C99.2239 2.5602 99.8906 3.22686 100.397 4.08019C100.904 4.93353 101.157 6.02686 101.157 7.3602C101.157 8.26686 101.011 9.01353 100.717 9.60019C100.424 10.1602 100.104 10.6402 99.7572 11.0402L98.6772 11.7602L99.5972 12.1202ZM100.077 18.4802C100.077 17.6002 99.8372 16.8669 99.3572 16.2802C98.9039 15.6669 98.3172 15.1869 97.5972 14.8402C96.9039 14.4935 96.1306 14.2535 95.2772 14.1202C94.4506 13.9602 93.6506 13.8802 92.8772 13.8802H90.9972V10.4802H92.8772C93.8906 10.4002 94.7439 10.2402 95.4372 10.0002C96.1572 9.7602 96.7572 9.37353 97.2372 8.8402C97.3706 8.70686 97.4906 8.5202 97.5972 8.2802C97.7306 8.04019 97.7972 7.70686 97.7972 7.2802C97.7972 7.2002 97.7839 7.1202 97.7572 7.0402C97.7306 6.9602 97.7172 6.85353 97.7172 6.7202C97.6372 6.2402 97.4372 5.8402 97.1172 5.5202C96.8239 5.17353 96.4506 4.90686 95.9972 4.7202C95.5706 4.53353 95.0772 4.4002 94.5172 4.32019C93.9839 4.2402 93.4239 4.2002 92.8372 4.2002C91.8506 4.2002 90.9439 4.26686 90.1172 4.4002C89.3172 4.50686 88.5839 4.57353 87.9172 4.6002V22.6002C88.1572 22.6002 88.4372 22.6135 88.7572 22.6402C89.1039 22.6402 89.4639 22.6535 89.8372 22.6802C90.2106 22.7069 90.5839 22.7335 90.9572 22.7602C91.3306 22.7602 91.6772 22.7602 91.9972 22.7602C93.0639 22.7602 94.0639 22.7069 94.9972 22.6002C95.9306 22.4669 96.7572 22.2535 97.4772 21.9602C98.1972 21.6402 98.7839 21.2002 99.2372 20.6402C99.6906 20.0802 99.9706 19.3602 100.077 18.4802Z" fill="white"/>
<path d="M119.324 0.840197C120.871 4.73353 122.324 8.3602 123.684 11.7202C124.244 13.1602 124.817 14.6135 125.404 16.0802C125.991 17.5202 126.537 18.8802 127.044 20.1602C127.577 21.4402 128.044 22.5869 128.444 23.6002C128.871 24.6135 129.191 25.4002 129.404 25.9602H125.684C125.124 24.5202 124.551 23.0935 123.964 21.6802C123.404 20.2402 122.831 18.7602 122.244 17.2402C121.337 16.9735 120.417 16.8402 119.484 16.8402C118.791 16.8402 118.097 16.8935 117.404 17.0002C116.737 17.1069 116.057 17.2135 115.364 17.3202L112.284 17.8002L108.964 25.9602H105.204L108.524 17.6402C108.071 17.5602 107.577 17.4402 107.044 17.2802C106.537 17.1202 106.031 16.9069 105.524 16.6402V12.6402C106.324 13.1469 107.071 13.5335 107.764 13.8002C108.484 14.0669 109.177 14.2402 109.844 14.3202L115.284 0.840197H119.324ZM114.684 13.9202C114.737 13.9202 114.764 13.9202 114.764 13.9202C114.791 13.8935 114.831 13.8802 114.884 13.8802C115.577 13.7469 116.297 13.6269 117.044 13.5202C117.791 13.3869 118.551 13.3202 119.324 13.3202C119.537 13.3202 119.764 13.3335 120.004 13.3602C120.244 13.3602 120.471 13.3735 120.684 13.4002L120.444 12.6402L117.364 5.0002L113.684 14.0802C113.844 14.0269 114.004 14.0002 114.164 14.0002C114.351 14.0002 114.524 13.9735 114.684 13.9202Z" fill="white"/>
<path d="M154.472 17.7602C153.939 19.2802 153.126 20.6669 152.032 21.9202C150.939 23.1735 149.606 24.2002 148.032 25.0002C146.166 25.9335 144.206 26.4002 142.152 26.4002C140.872 26.4002 139.646 26.2402 138.472 25.9202C137.299 25.5735 136.206 25.0935 135.192 24.4802C134.179 23.8402 133.259 23.0802 132.432 22.2002C131.632 21.3202 130.952 20.3202 130.392 19.2002C129.939 18.2669 129.592 17.3069 129.352 16.3202C129.139 15.3335 129.032 14.3602 129.032 13.4002C129.032 12.2002 129.192 11.0135 129.512 9.8402C129.859 8.66686 130.339 7.57353 130.952 6.5602C131.566 5.5202 132.326 4.58686 133.232 3.76019C134.139 2.90686 135.166 2.18686 136.312 1.6002C138.232 0.666862 140.219 0.200195 142.272 0.200195C143.526 0.200195 144.726 0.373529 145.872 0.720196C147.046 1.0402 148.139 1.5202 149.152 2.1602C150.166 2.77353 151.072 3.5202 151.872 4.4002C152.699 5.2802 153.392 6.2802 153.952 7.4002C154.246 7.9602 154.486 8.50686 154.672 9.0402C153.712 9.0402 152.979 9.0402 152.472 9.0402C151.966 9.01353 151.592 9.0002 151.352 9.0002C151.112 9.0002 150.966 9.0002 150.912 9.0002C150.859 8.97353 150.832 8.9602 150.832 8.9602C150.032 7.30686 148.859 6.01353 147.312 5.0802C145.792 4.14686 144.112 3.6802 142.272 3.6802C140.699 3.6802 139.232 4.02686 137.872 4.7202C137.019 5.14686 136.259 5.6802 135.592 6.3202C134.952 6.93353 134.406 7.62686 133.952 8.4002C133.499 9.14686 133.152 9.94686 132.912 10.8002C132.672 11.6535 132.552 12.5202 132.552 13.4002C132.552 14.8669 132.886 16.2802 133.552 17.6402C134.352 19.2935 135.512 20.5869 137.032 21.5202C138.579 22.4535 140.286 22.9202 142.152 22.9202C143.592 22.9202 145.032 22.5735 146.472 21.8802C147.406 21.4269 148.232 20.8402 148.952 20.1202C149.672 19.4002 150.259 18.6135 150.712 17.7602H154.472Z" fill="white"/>
<path d="M179.839 0.840197V26.0002H176.359V14.8002H161.759V26.0002H158.279V0.840197H161.759V11.2802H176.359V0.840197H179.839Z" fill="white"/>
<path d="M202.166 26.0002H184.646V0.880196H201.486V4.4402H188.166V11.4402C188.886 11.7069 189.58 11.8402 190.246 11.8402C191.126 11.8402 191.953 11.7069 192.726 11.4402C193.5 11.1735 194.286 11.0402 195.086 11.0402C195.753 11.0402 196.38 11.1869 196.966 11.4802V15.1602C196.273 14.9202 195.62 14.8002 195.006 14.8002C194.18 14.8002 193.38 14.9069 192.606 15.1202C191.833 15.3335 191.006 15.4402 190.126 15.4402C189.486 15.4402 188.833 15.3469 188.166 15.1602V22.4802H202.166V26.0002Z" fill="white"/>
<path d="M219.231 26.0002H215.631L205.751 0.840197H209.391L219.231 26.0002ZM225.591 0.840197H229.231L219.311 26.0002H215.711L225.591 0.840197Z" fill="white"/>
<path d="M71.6733 40.8802C71.6467 41.7602 71.5 42.5869 71.2333 43.3602C70.9933 44.1069 70.6333 44.7735 70.1533 45.3602C69.6733 45.9202 69.06 46.3735 68.3133 46.7202C67.5933 47.0402 66.7533 47.2002 65.7933 47.2002C64.3267 47.2002 62.7933 46.9069 61.1933 46.3202V66.0002H57.7933V44.9202C57.2067 44.7069 56.58 44.5335 55.9133 44.4002C55.2467 44.2669 54.5933 44.2002 53.9533 44.2002C53.26 44.2002 52.62 44.3202 52.0333 44.5602C51.4733 44.8002 51.18 45.3335 51.1533 46.1602H47.7533C47.7533 45.2802 47.9133 44.5069 48.2333 43.8402C48.58 43.1735 49.0333 42.6269 49.5933 42.2002C50.1533 41.7469 50.8067 41.4135 51.5533 41.2002C52.3267 40.9602 53.1533 40.8402 54.0333 40.8402C55.3667 40.8402 56.5533 41.0002 57.5933 41.3202C58.66 41.6135 59.6333 41.9469 60.5133 42.3202C61.42 42.6935 62.2867 43.0402 63.1133 43.3602C63.9667 43.6535 64.8467 43.8002 65.7533 43.8002C66.26 43.8002 66.6733 43.7469 66.9933 43.6402C67.3133 43.5335 67.5533 43.3735 67.7133 43.1602C67.9 42.9202 68.02 42.6135 68.0733 42.2402C68.1533 41.8669 68.2067 41.4135 68.2333 40.8802H71.6733Z" fill="white"/>
<path d="M71.8346 52.2402C71.8879 51.3602 72.1679 50.5469 72.6746 49.8002C73.2079 49.0269 73.8746 48.4802 74.6746 48.1602C74.7812 48.1069 74.8746 48.0802 74.9546 48.0802V40.8802C75.5146 40.8002 76.1546 40.7469 76.8746 40.7202C77.6212 40.6669 78.3146 40.6402 78.9546 40.6402C80.3946 40.6402 81.8346 40.7735 83.2746 41.0402C84.7412 41.3069 86.0479 41.7469 87.1946 42.3602C88.3679 42.9735 89.3146 43.8002 90.0346 44.8402C90.7812 45.8802 91.1546 47.1735 91.1546 48.7202C91.1546 50.6669 90.6879 52.2802 89.7546 53.5602C88.8479 54.8402 87.4746 55.8535 85.6346 56.6002C86.1412 57.5069 86.6746 58.4269 87.2346 59.3602C87.8212 60.2669 88.4479 61.0935 89.1146 61.8402C89.7812 62.5602 90.5012 63.1602 91.2746 63.6402C92.0479 64.0935 92.9012 64.3202 93.8346 64.3202V67.7202C92.3946 67.7202 91.0612 67.4002 89.8346 66.7602C88.6346 66.1202 87.5412 65.3069 86.5546 64.3202C85.5679 63.3335 84.6746 62.2402 83.8746 61.0402C83.1012 59.8402 82.4212 58.6802 81.8346 57.5602C81.6479 57.6135 81.3412 57.6669 80.9146 57.7202C80.5146 57.7469 79.7812 57.7869 78.7146 57.8402C78.6612 57.8402 78.5946 57.8535 78.5146 57.8802C78.4612 57.8802 78.4079 57.8802 78.3546 57.8802V65.9602H74.9546V57.1202C74.6612 56.9869 74.4212 56.8402 74.2346 56.6802C74.0746 56.5202 73.8879 56.3335 73.6746 56.1202C73.0612 55.5869 72.5946 54.9869 72.2746 54.3202C71.9812 53.6269 71.8346 52.9335 71.8346 52.2402ZM81.3546 50.3202C81.7279 50.6935 82.0879 51.1602 82.4346 51.7202C82.8079 52.2802 83.1946 52.8935 83.5946 53.5602C85.1679 53.0002 86.2479 52.3069 86.8346 51.4802C87.4212 50.6535 87.7146 49.8269 87.7146 49.0002C87.7146 47.8535 87.3812 46.9602 86.7146 46.3202C86.0746 45.6535 85.2746 45.1602 84.3146 44.8402C83.3812 44.5202 82.3812 44.3335 81.3146 44.2802C80.2479 44.2002 79.2879 44.1602 78.4346 44.1602C78.4079 44.2135 78.3946 44.3869 78.3946 44.6802C78.3946 44.9469 78.3812 45.3602 78.3546 45.9202C78.3546 46.4535 78.3546 47.2269 78.3546 48.2402C78.8079 48.4269 79.2879 48.6935 79.7946 49.0402C80.3012 49.3602 80.8212 49.7869 81.3546 50.3202ZM80.4346 54.4402C80.2479 54.0935 80.0079 53.7202 79.7146 53.3202C79.4212 52.9202 79.0879 52.5469 78.7146 52.2002C78.3679 51.8269 77.9812 51.5202 77.5546 51.2802C77.1546 51.0402 76.7412 50.9202 76.3146 50.9202C75.9412 50.9202 75.6079 51.0802 75.3146 51.4002C75.0212 51.6935 74.8746 51.9869 74.8746 52.2802C74.8746 52.7069 75.0212 53.0669 75.3146 53.3602C75.6079 53.6269 75.9546 53.8535 76.3546 54.0402C76.7812 54.2002 77.2079 54.3202 77.6346 54.4002C78.0612 54.4535 78.4079 54.4802 78.6746 54.4802L80.4346 54.4402Z" fill="white"/>
<path d="M109.969 40.8402C111.515 44.7335 112.969 48.3602 114.329 51.7202C114.889 53.1602 115.462 54.6135 116.049 56.0802C116.635 57.5202 117.182 58.8802 117.689 60.1602C118.222 61.4402 118.689 62.5869 119.089 63.6002C119.515 64.6135 119.835 65.4002 120.049 65.9602H116.329C115.769 64.5202 115.195 63.0935 114.609 61.6802C114.049 60.2402 113.475 58.7602 112.889 57.2402C111.982 56.9735 111.062 56.8402 110.129 56.8402C109.435 56.8402 108.742 56.8935 108.049 57.0002C107.382 57.1069 106.702 57.2135 106.009 57.3202L102.929 57.8002L99.6086 65.9602H95.8486L99.1686 57.6402C98.7153 57.5602 98.222 57.4402 97.6886 57.2802C97.182 57.1202 96.6753 56.9069 96.1686 56.6402V52.6402C96.9686 53.1469 97.7153 53.5335 98.4086 53.8002C99.1286 54.0669 99.822 54.2402 100.489 54.3202L105.929 40.8402H109.969ZM105.329 53.9202C105.382 53.9202 105.409 53.9202 105.409 53.9202C105.435 53.8935 105.475 53.8802 105.529 53.8802C106.222 53.7469 106.942 53.6269 107.689 53.5202C108.435 53.3869 109.195 53.3202 109.969 53.3202C110.182 53.3202 110.409 53.3335 110.649 53.3602C110.889 53.3602 111.115 53.3735 111.329 53.4002L111.089 52.6402L108.009 45.0002L104.329 54.0802C104.489 54.0269 104.649 54.0002 104.809 54.0002C104.995 54.0002 105.169 53.9735 105.329 53.9202Z" fill="white"/>
<path d="M130.383 66.0002H126.783L116.903 40.8402H120.543L130.383 66.0002ZM136.743 40.8402H140.383L130.463 66.0002H126.863L136.743 40.8402Z" fill="white"/>
<path d="M161.522 66.0002H144.002V40.8802H160.842V44.4402H147.522V51.4402C148.242 51.7069 148.935 51.8402 149.602 51.8402C150.482 51.8402 151.308 51.7069 152.082 51.4402C152.855 51.1735 153.642 51.0402 154.442 51.0402C155.108 51.0402 155.735 51.1869 156.322 51.4802V55.1602C155.628 54.9202 154.975 54.8002 154.362 54.8002C153.535 54.8002 152.735 54.9069 151.962 55.1202C151.188 55.3335 150.362 55.4402 149.482 55.4402C148.842 55.4402 148.188 55.3469 147.522 55.1602V62.4802H161.522V66.0002Z" fill="white"/>
<path d="M169.786 62.5202H182.266V66.0002H166.306V40.8402H169.786V62.5202Z" fill="white"/>
<path d="M30.8225 51.4414C29.66 50.7568 28.3735 50 26.25 50C24.1265 50 22.84 50.7568 21.6775 51.4414C20.67 52.018 19.8485 52.5225 18.5 52.5225C17.105 52.5225 16.33 52.0721 15.3225 51.4414C14.16 50.7748 12.889 50 10.75 50C8.611 50 7.34 50.7568 6.1775 51.4414C5.17 52.036 4.364 52.5225 3 52.5225V56C5.0925 56 6.41 55.2252 7.5725 54.5586C8.58 53.964 9.386 53.4775 10.75 53.4775C12.114 53.4775 12.92 53.9279 13.9275 54.5586C15.09 55.2432 16.361 56 18.5 56C20.639 56 21.91 55.2252 23.0725 54.5586C24.08 53.982 24.9015 53.4775 26.25 53.4775C27.645 53.4775 28.42 53.9279 29.4275 54.5586C30.59 55.2432 31.8765 56 34 56V52.4865C32.605 52.4865 31.83 52.036 30.8225 51.4414Z" fill="white"/>
<path d="M225.823 51.4414C224.66 50.7568 223.373 50 221.25 50C219.126 50 217.84 50.7568 216.677 51.4414C215.67 52.018 214.848 52.5225 213.5 52.5225C212.105 52.5225 211.33 52.0721 210.322 51.4414C209.16 50.7748 207.889 50 205.75 50C203.611 50 202.34 50.7568 201.178 51.4414C200.17 52.036 199.364 52.5225 198 52.5225V56C200.092 56 201.41 55.2252 202.572 54.5586C203.58 53.964 204.386 53.4775 205.75 53.4775C207.114 53.4775 207.92 53.9279 208.927 54.5586C210.09 55.2432 211.361 56 213.5 56C215.639 56 216.91 55.2252 218.072 54.5586C219.08 53.982 219.901 53.4775 221.25 53.4775C222.645 53.4775 223.42 53.9279 224.427 54.5586C225.59 55.2432 226.876 56 229 56V52.4865C227.605 52.4865 226.83 52.036 225.823 51.4414Z" fill="white"/>
</svg>
