<svg viewBox="0 0 24 24"  xmlns="http://www.w3.org/2000/svg" style="display:none">

	<symbol viewBox="0 0 39 37" id="star">
		<path d="M18.5748 1.25583C18.9141 0.428452 20.0859 0.428453 20.4252 1.25584L24.9019 12.1709C25.0456 12.5212 25.3747 12.7603 25.7521 12.7886L37.5164 13.6733C38.4081 13.7404 38.7702 14.8547 38.0882 15.4331L29.0907 23.0637C28.802 23.3085 28.6763 23.6954 28.7659 24.0632L31.5599 35.525C31.7717 36.3939 30.8238 37.0826 30.0629 36.6127L20.0255 30.4135C19.7034 30.2146 19.2966 30.2146 18.9745 30.4135L8.93707 36.6127C8.17621 37.0826 7.22827 36.3939 7.44006 35.525L10.2341 24.0632C10.3237 23.6954 10.198 23.3085 9.9093 23.0637L0.911805 15.4331C0.229781 14.8547 0.591866 13.7404 1.48362 13.6733L13.2479 12.7886C13.6253 12.7603 13.9544 12.5212 14.0981 12.1709L18.5748 1.25583Z"/>
	</symbol>

	<symbol viewBox="0 0 80 80" id="whatsapp">
		<path d="M74.0171 18.4995C62.0501 -0.000611548 37.6174 -5.50065 18.6696 5.99944C0.220458 17.4995 -5.76305 42.4997 6.20397 60.9999L7.20122 62.4999L3.21221 77.5L18.171 73.5L19.6669 74.5C26.149 78 33.1298 80 40.1105 80C47.5899 80 55.0693 78 61.5515 73.9999C80.0006 61.9999 85.4855 37.4997 74.0171 18.4995ZM63.546 56.9998C61.5514 59.9998 59.0583 61.9999 55.5679 62.4999C53.5734 62.4999 51.0803 63.4999 41.1078 59.4998C32.6311 55.4998 25.6504 48.9998 20.6641 41.4997C17.6724 37.9997 16.1765 33.4996 15.6779 28.9996C15.6779 24.9996 17.1737 21.4996 19.6669 18.9995C20.6641 17.9995 21.6614 17.4995 22.6586 17.4995H25.1518C26.149 17.4995 27.1463 17.4995 27.6449 19.4995C28.6421 21.9996 31.1353 27.9996 31.1353 28.4996C31.6339 28.9996 31.6339 29.9996 31.1353 30.4996C31.6339 31.4996 31.1353 32.4996 30.6366 32.9996C30.138 33.4996 29.6394 34.4997 29.1408 34.9997C28.1435 35.4997 27.6449 36.4997 28.1435 37.4997C30.138 40.4997 32.6311 43.4997 35.1243 45.9997C38.116 48.4998 41.1078 50.4998 44.5982 51.9998C45.5954 52.4998 46.5927 52.4998 47.0913 51.4998C47.5899 50.4998 50.0831 47.9998 51.0803 46.9997C52.0776 45.9997 52.5762 45.9997 53.5734 46.4997L61.5515 50.4998C62.5487 50.9998 63.546 51.4998 64.0446 51.9998C64.5432 53.4998 64.5432 55.4998 63.546 56.9998Z"/>
	</symbol>

	<symbol viewBox="0 0 20 19" id="close">
		<path fill-rule="evenodd" clip-rule="evenodd" d="M1.91332 0.352631L19.1474 17.5867L18.0867 18.6473L0.852661 1.41329L1.91332 0.352631Z"/>
		<path fill-rule="evenodd" clip-rule="evenodd" d="M0.852662 17.5867L18.0867 0.352668L19.1474 1.41333L1.91332 18.6474L0.852662 17.5867Z"/>
	</symbol>

	<symbol viewBox="0 0 28 20" id="check">
		<path fill-rule="evenodd" clip-rule="evenodd" d="M9.61707 19.1777L0.469719 10.0304L1.53038 8.9697L9.61707 17.0564L26.3208 0.352681L27.3814 1.41334L9.61707 19.1777Z"/>
	</symbol>

	<symbol viewBox="0 0 77 23" id="slider-arrow-prev">
		<path fill-rule="evenodd" clip-rule="evenodd" d="M3.74201 12.2498L12.4787 21.4844L11.389 22.5153L0.967529 11.4998L11.389 0.484375L12.4787 1.51525L3.74201 10.7498H76.5V12.2498H3.74201Z"/>
	</symbol>

	<symbol viewBox="0 0 77 23" id="slider-arrow-next">
		<path fill-rule="evenodd" clip-rule="evenodd" d="M73.258 12.2498L64.5213 21.4844L65.611 22.5153L76.0325 11.4998L65.611 0.484375L64.5213 1.51525L73.258 10.7498H0.500008V12.2498H73.258Z"/>
	</symbol>
		
</svg>